<?xml version="1.0" encoding="UTF-8"?>
<svg width="17px" height="18px" viewBox="0 0 17 18" version="1.1" xmlns="http://www.w3.org/2000/svg" xmlns:xlink="http://www.w3.org/1999/xlink">
    <g id="Page-1" stroke="none" stroke-width="1" fill-rule="evenodd">
        <g id="units_and_language_filter" transform="translate(-1053.000000, -249.000000)" fill-rule="nonzero">
            <g id="first_chart" transform="translate(42.000000, 196.000000)">
                <g id="Group_22" transform="translate(271.000000, 13.000000)">
                    <g id="Group_23-2" transform="translate(528.000000, 32.000000)">
                        <g id="dates-2" transform="translate(52.000000, 8.000000)">
                            <g id="Group_21-2" transform="translate(160.000000, 0.000000)">
                                <g id="calendar-2">
                                    <path d="M3,1.6 L13.4,1.6 C15.0568542,1.6 16.4,2.94314575 16.4,4.6 L16.4,15 C16.4,16.6568542 15.0568542,18 13.4,18 L3,18 C1.34314575,18 0,16.6568542 0,15 L0,4.6 C0,2.94314575 1.34314575,1.6 3,1.6 Z M13.4,16 C13.9522847,16 14.4,15.5522847 14.4,15 L14.4,4.6 C14.4,4.04771525 13.9522847,3.6 13.4,3.6 L3,3.6 C2.44771525,3.6 2,4.04771525 2,4.6 L2,15 C2,15.5522847 2.44771525,16 3,16 L13.4,16 Z" id="Rectangle-19-2"></path>
                                    <path d="M11.4,5.2 C10.8477153,5.2 10.4,4.75228475 10.4,4.2 L10.4,1 C10.4,0.44771525 10.8477153,0 11.4,0 C11.9522847,0 12.4,0.44771525 12.4,1 L12.4,4.2 C12.4,4.75228475 11.9522847,5.2 11.4,5.2 Z" id="Path-9"></path>
                                    <path d="M5,5.2 C4.44771525,5.2 4,4.75228475 4,4.2 L4,1 C4,0.44771525 4.44771525,0 5,0 C5.55228475,0 6,0.44771525 6,1 L6,4.2 C6,4.75228475 5.55228475,5.2 5,5.2 Z" id="Path-10"></path>
                                    <path d="M15.4,8.4 L1,8.4 C0.44771525,8.4 0,7.95228475 0,7.4 C0,6.84771525 0.44771525,6.4 1,6.4 L15.4,6.4 C15.9522847,6.4 16.4,6.84771525 16.4,7.4 C16.4,7.95228475 15.9522847,8.4 15.4,8.4 Z" id="Path-11"></path>
                                </g>
                            </g>
                        </g>
                    </g>
                </g>
            </g>
        </g>
    </g>
</svg>