<?xml version="1.0" encoding="UTF-8"?>
<svg width="18px" height="17px" viewBox="0 0 18 17" version="1.1" xmlns="http://www.w3.org/2000/svg" xmlns:xlink="http://www.w3.org/1999/xlink">
    <g id="Page-1" stroke="none" stroke-width="1" fill-rule="evenodd">
        <g id="payment-successful" transform="translate(-1111.000000, -519.000000)" fill-rule="nonzero">
            <g id="Group_73" transform="translate(0.000000, 1.000000)">
                <g id="Group_62" transform="translate(262.000000, 486.000000)">
                    <g id="Group_61" transform="translate(828.000000, 23.000000)">
                        <g id="Group_59" transform="translate(21.000000, 8.000000)">
                            <path d="M15.688,2.076 L13.382,2.076 L13.382,1.614 C13.3932135,1.31279815 13.17923,1.05002642 12.882,1 C12.7159195,0.985252297 12.5515073,1.04256729 12.430587,1.157365 C12.3096668,1.27216271 12.2438939,1.43337786 12.25,1.6 L12.25,2.075 L4.763,2.075 L4.763,1.614 C4.77421346,1.31279815 4.56022997,1.05002642 4.263,1 C4.09691951,0.985252297 3.93250728,1.04256729 3.81158703,1.157365 C3.69066677,1.27216271 3.62489392,1.43337786 3.631,1.6 L3.631,2.075 L1.323,2.075 C0.56977773,2.09785287 -0.0224292041,2.726765 -1.08420217e-19,3.48 L-1.08420217e-19,15.954 C-0.0196188755,16.7053075 0.571784402,17.3311311 1.323,17.354 L15.688,17.354 C16.4392156,17.3311311 17.0306189,16.7053075 17.011,15.954 L17.011,3.48 C17.032866,2.72715035 16.4408202,2.0988569 15.688,2.076 L15.688,2.076 Z M3.969,16.155 L1.323,16.155 C1.21686079,16.1491536 1.13383911,16.0613 1.13399977,15.955 L1.13399977,11.903 L3.969,11.903 L3.969,16.155 L3.969,16.155 Z M3.969,10.74 L1.134,10.74 L1.134,6.488 L3.969,6.488 L3.969,10.74 Z M7.938,16.155 L5.1,16.155 L5.1,11.903 L7.939,11.903 L7.939,16.155 L7.938,16.155 Z M7.938,10.74 L5.1,10.74 L5.1,6.488 L7.939,6.488 L7.939,10.74 L7.938,10.74 Z M11.907,16.155 L9.073,16.155 L9.073,11.903 L11.908,11.903 L11.907,16.155 Z M11.907,10.74 L9.073,10.74 L9.073,6.488 L11.908,6.488 L11.907,10.74 Z M15.876,15.954 C15.8761609,16.0603 15.7931392,16.1481536 15.687,16.154 L13.042,16.154 L13.042,11.903 L15.877,11.903 L15.876,15.954 Z M15.876,10.74 L13.042,10.74 L13.042,6.488 L15.877,6.488 L15.876,10.74 Z M15.876,5.285 L1.13399977,5.285 L1.13399977,3.485 C1.13383911,3.37870001 1.21686079,3.29084638 1.323,3.285 L3.629,3.285 L3.629,3.744 C3.61778654,4.04520185 3.83177003,4.30797358 4.129,4.358 C4.29508049,4.3727477 4.45949272,4.31543271 4.58041297,4.200635 C4.70133323,4.08583729 4.76710608,3.92462214 4.761,3.758 L4.761,3.283 L12.246,3.283 L12.246,3.742 C12.2347865,4.04320185 12.44877,4.30597358 12.746,4.356 C12.9120805,4.3707477 13.0764927,4.31343271 13.197413,4.198635 C13.3183332,4.08383729 13.3841061,3.92262214 13.378,3.756 L13.378,3.281 L15.684,3.281 C15.7901392,3.28684638 15.8731609,3.37470001 15.873,3.481 L15.876,5.285 Z" id="Path_71"></path>
                        </g>
                    </g>
                </g>
            </g>
        </g>
    </g>
</svg>