<?xml version="1.0" encoding="utf-8"?>
<svg  viewBox="2 2 14 14" version="1.1" xmlns:xlink="http://www.w3.org/1999/xlink" xmlns="http://www.w3.org/2000/svg">
  <path d="M13.0306 7.35123C12.8527 7.52912 12.59 7.63846 12.3386 7.63846L12.319 7.63846C12.1705 7.6401 12.0236 7.63846 11.8751 7.63846L7.63846 7.63846L7.63846 12.3386C7.63846 12.6046 7.52749 12.8396 7.35123 13.0306C7.17498 13.2232 6.91222 13.3064 6.65926 13.3178C6.4161 13.3276 6.13702 13.2003 5.9673 13.0306C5.78941 12.8527 5.68006 12.59 5.68006 12.3386L5.68006 12.319C5.67843 12.1705 5.68006 12.0236 5.68006 11.8751L5.68006 7.63846L0.979904 7.63846C0.71552 7.63846 0.47888 7.52749 0.287936 7.35123C0.0953602 7.17498 0.0121283 6.91222 0.000704256 6.65926C-0.0107197 6.4161 0.118208 6.13702 0.287936 5.9673C0.465824 5.78941 0.728576 5.68006 0.979904 5.68006L0.999488 5.68006C1.148 5.67843 1.29488 5.68006 1.44339 5.68006L5.68006 5.68006L5.68006 0.979904C5.68006 0.713888 5.79104 0.47888 5.9673 0.287936C6.14355 0.0953602 6.4063 0.0121283 6.65926 0.000704256C6.90243 -0.0107197 7.1815 0.118208 7.35123 0.287936C7.52912 0.465824 7.63846 0.728576 7.63846 0.979904L7.63846 0.999488C7.6401 1.148 7.63846 1.29488 7.63846 1.44339L7.63846 5.68006L12.3386 5.68006C12.6046 5.68006 12.8396 5.79104 13.0306 5.9673C13.2232 6.14355 13.3064 6.4063 13.3178 6.65926C13.3276 6.90243 13.2003 7.1815 13.0306 7.35123Z" transform="matrix(0.7071067 0.7071067 -0.7071067 0.7071067 9.41748 0)" id="Path"  stroke="none" />
</svg>