<?xml version="1.0" encoding="UTF-8"?>
<svg width="700pt" height="700pt" version="1.1" viewBox="225 134 300 300" xmlns="http://www.w3.org/2000/svg" xmlns:xlink="http://www.w3.org/1999/xlink">
 <g>
  <path d="m262.18 165.82v237.42l227.82-118.72z"/>
  <path d="m230.66 165.59v237.41c0 24.891 26.375 38.387 47.461 27.406 75.941-39.574 151.88-79.152 227.83-118.72 20.664-10.773 20.305-43.77-0.20312-54.453-75.941-39.562-151.88-79.129-227.82-118.69-35.953-18.727-67.602 35.75-31.5 54.562 75.941 39.562 151.89 79.129 227.82 118.69-0.066406-18.148-0.12891-36.301-0.20312-54.449-75.941 39.574-151.88 79.145-227.82 118.72 15.82 9.1328 31.633 18.266 47.461 27.406v-237.42c-0.007812-40.695-63.023-41.055-63.023-0.46484z"/>
  <use x="70" y="644" xlink:href="#v"/>
  <use x="90.550781" y="644" xlink:href="#c"/>
  <use x="104.359375" y="644" xlink:href="#b"/>
  <use x="123.347656" y="644" xlink:href="#f"/>
  <use x="142.242188" y="644" xlink:href="#a"/>
  <use x="155.628906" y="644" xlink:href="#b"/>
  <use x="174.617188" y="644" xlink:href="#k"/>
  <use x="204.410156" y="644" xlink:href="#j"/>
  <use x="224.453125" y="644" xlink:href="#i"/>
  <use x="252.453125" y="644" xlink:href="#e"/>
  <use x="272.972656" y="644" xlink:href="#d"/>
  <use x="292.210938" y="644" xlink:href="#c"/>
  <use x="315.765625" y="644" xlink:href="#u"/>
  <use x="335.929688" y="644" xlink:href="#h"/>
  <use x="355.867188" y="644" xlink:href="#g"/>
  <use x="375.90625" y="644" xlink:href="#g"/>
  <use x="395.953125" y="644" xlink:href="#f"/>
  <use x="414.84375" y="644" xlink:href="#t"/>
  <use x="431.511719" y="644" xlink:href="#s"/>
  <use x="441.109375" y="644" xlink:href="#a"/>
  <use x="70" y="672" xlink:href="#r"/>
  <use x="82.183594" y="672" xlink:href="#c"/>
  <use x="95.992188" y="672" xlink:href="#d"/>
  <use x="115.226562" y="672" xlink:href="#q"/>
  <use x="154.152344" y="672" xlink:href="#a"/>
  <use x="167.535156" y="672" xlink:href="#p"/>
  <use x="187.46875" y="672" xlink:href="#b"/>
  <use x="216.207031" y="672" xlink:href="#o"/>
  <use x="239.640625" y="672" xlink:href="#d"/>
  <use x="258.878906" y="672" xlink:href="#h"/>
  <use x="278.8125" y="672" xlink:href="#n"/>
  <use x="308.492188" y="672" xlink:href="#e"/>
  <use x="329.015625" y="672" xlink:href="#c"/>
  <use x="342.820312" y="672" xlink:href="#d"/>
  <use x="362.058594" y="672" xlink:href="#m"/>
  <use x="371.65625" y="672" xlink:href="#b"/>
  <use x="390.648438" y="672" xlink:href="#l"/>
  <use x="407.242188" y="672" xlink:href="#a"/>
 </g>
</svg>
